<svg width="20" height="22" viewBox="0 0 20 22" fill="none" xmlns="http://www.w3.org/2000/svg">
<path d="M10.0001 1.00001C10.9363 0.998193 11.8521 1.28925 12.6315 1.83637C13.411 2.3835 14.0191 3.16211 14.379 4.07376C14.7389 4.98541 14.8344 5.98915 14.6534 6.95804C14.4724 7.92693 14.0231 8.81747 13.3623 9.51703C12.7015 10.2166 11.8588 10.6938 10.9409 10.8882C10.0229 11.0826 9.07091 10.9856 8.20525 10.6094C7.33959 10.2332 6.59914 9.59464 6.07754 8.77456C5.55594 7.95448 5.27662 6.98968 5.2749 6.00217V5.99298C5.27489 4.67035 5.77245 3.40176 6.65834 2.46566C7.54423 1.52956 8.74607 1.00244 10.0001 1.00001ZM10.0001 12.8362C15.289 12.8362 19.4591 16.5514 19.4591 18.4016V21H0.541016V18.3551C0.541016 16.5049 4.71064 12.8362 10.0001 12.8362Z" stroke="#160605" stroke-linecap="round" stroke-linejoin="round"/>
</svg>
