<svg width="28" height="30" viewBox="0 0 28 30" fill="none" xmlns="http://www.w3.org/2000/svg">
<g filter="url(#filter0_d_363_1980)">
<path d="M14.0001 1.00001C14.9363 0.998193 15.8521 1.28925 16.6315 1.83637C17.411 2.3835 18.0191 3.16211 18.379 4.07376C18.7389 4.98541 18.8344 5.98915 18.6534 6.95804C18.4724 7.92693 18.0231 8.81747 17.3623 9.51703C16.7015 10.2166 15.8588 10.6938 14.9409 10.8882C14.0229 11.0826 13.0709 10.9856 12.2052 10.6094C11.3396 10.2332 10.5991 9.59464 10.0775 8.77456C9.55594 7.95448 9.27662 6.98968 9.2749 6.00217V5.99298C9.27489 4.67035 9.77245 3.40176 10.6583 2.46566C11.5442 1.52956 12.7461 1.00244 14.0001 1.00001ZM14.0001 12.8362C19.289 12.8362 23.4591 16.5514 23.4591 18.4016V21H4.54102V18.3551C4.54102 16.5049 8.71064 12.8362 14.0001 12.8362Z" stroke="#160605" stroke-linecap="round" stroke-linejoin="round" shape-rendering="crispEdges"/>
</g>
<defs>
<filter id="filter0_d_363_1980" x="0.0410156" y="0.5" width="27.918" height="29" filterUnits="userSpaceOnUse" color-interpolation-filters="sRGB">
<feFlood flood-opacity="0" result="BackgroundImageFix"/>
<feColorMatrix in="SourceAlpha" type="matrix" values="0 0 0 0 0 0 0 0 0 0 0 0 0 0 0 0 0 0 127 0" result="hardAlpha"/>
<feOffset dy="4"/>
<feGaussianBlur stdDeviation="2"/>
<feComposite in2="hardAlpha" operator="out"/>
<feColorMatrix type="matrix" values="0 0 0 0 0 0 0 0 0 0 0 0 0 0 0 0 0 0 0.25 0"/>
<feBlend mode="normal" in2="BackgroundImageFix" result="effect1_dropShadow_363_1980"/>
<feBlend mode="normal" in="SourceGraphic" in2="effect1_dropShadow_363_1980" result="shape"/>
</filter>
</defs>
</svg>
