<svg width="18" height="20" viewBox="0 0 18 20" fill="none" xmlns="http://www.w3.org/2000/svg">
<g clip-path="url(#clip0_342_655)">
<path d="M17.5716 14.9999L16.5716 15.9999L14.7144 14.1428V19.9999H13.2859V14.1428L11.4287 15.9999L10.4287 14.9999L14.0001 11.4285L17.5716 14.9999Z" fill="black"/>
<path d="M8.57157 20L1.143 15.5714C0.714425 15.2857 0.428711 14.8571 0.428711 14.3571V5.64286C0.428711 5.14286 0.714425 4.64286 1.143 4.42857L8.28585 0.214286C8.50014 0.0714285 8.71443 0 9.00014 0C9.28585 0 9.50014 0.0714285 9.71443 0.214286L16.8573 4.42857C17.2859 4.71429 17.5716 5.14286 17.5716 5.64286V10H16.143V5.64286L9.00014 1.42857L1.85728 5.64286V14.3571L9.35728 18.7857L8.57157 20Z" fill="#160605"/>
</g>
<defs>
<clipPath id="clip0_342_655">
<rect width="17.1429" height="20" fill="white" transform="translate(0.428711)"/>
</clipPath>
</defs>
</svg>
