<svg width="21" height="20" viewBox="0 0 21 20" fill="none" xmlns="http://www.w3.org/2000/svg">
<g clip-path="url(#clip0_363_1982)">
<path d="M7.25739 7.43769H8.61798M12.6998 12.8801H14.0603M14.0603 6.75739L7.25739 13.5603M9.70782 1.0293L8.17171 2.56269C7.91996 2.81489 7.57837 2.95681 7.22202 2.95726H4.80289C4.44636 2.95726 4.10445 3.09889 3.85235 3.35099C3.60025 3.60309 3.45862 3.945 3.45862 4.30153V6.72066C3.45817 7.07701 3.31625 7.4186 3.06405 7.67035L1.5293 9.20918C1.27731 9.46126 1.13574 9.80311 1.13574 10.1596C1.13574 10.516 1.27731 10.8578 1.5293 11.1099L3.06677 12.646C3.19146 12.7708 3.29037 12.9188 3.35784 13.0818C3.4253 13.2447 3.46001 13.4194 3.45998 13.5957V16.0149C3.45998 16.7577 4.06136 17.3591 4.80425 17.3591H7.22338C7.57985 17.3591 7.92136 17.5006 8.17307 17.7537L9.71054 19.2898C9.96262 19.5418 10.3045 19.6834 10.6609 19.6834C11.0174 19.6834 11.3592 19.5418 11.6113 19.2898L13.1474 17.7523C13.3994 17.5006 13.7409 17.3592 14.0971 17.3591H16.5162C16.8727 17.3591 17.2147 17.2175 17.4668 16.9654C17.7189 16.7133 17.8605 16.3714 17.8605 16.0149V13.5957C17.8605 13.2393 18.002 12.8977 18.2551 12.646L19.7912 11.1086C20.0432 10.8565 20.1847 10.5146 20.1847 10.1582C20.1847 9.80175 20.0432 9.4599 19.7912 9.20782L18.2537 7.67171C18.002 7.41973 17.8606 7.07817 17.8605 6.72202V4.30289C17.8605 3.94636 17.7189 3.60445 17.4668 3.35235C17.2147 3.10025 16.8727 2.95862 16.5162 2.95862H14.0971C13.7407 2.95817 13.3991 2.81625 13.1474 2.56405L11.6086 1.0293C11.3565 0.777305 11.0146 0.635742 10.6582 0.635742C10.3018 0.635742 9.9599 0.777305 9.70782 1.0293Z" stroke="#160605"/>
</g>
<defs>
<clipPath id="clip0_363_1982">
<rect width="20" height="20" fill="white" transform="translate(0.5)"/>
</clipPath>
</defs>
</svg>
