<svg width="29" height="32" viewBox="0 0 29 32" fill="none" xmlns="http://www.w3.org/2000/svg">
<path d="M27.375 3H23V1.125C23 0.95924 22.9342 0.800269 22.8169 0.683058C22.6997 0.565848 22.6658 0.5 22.5 0.5C22.3342 0.5 22.1172 0.63279 22 0.75C22 1 22 0.83424 22 1V3H8V1.125C8 0.95924 7.93415 0.800269 7.81694 0.683058C7.69973 0.565848 7.66576 0.5 7.5 0.5C7.33424 0.5 7.22095 0.565848 7.10374 0.683058C6.98653 0.800269 7 0.95924 7 1.125V3H2.375C1.87772 3 1.40081 3.19754 1.04917 3.54917C0.697544 3.90081 0.5 4.37772 0.5 4.875V29.875C0.5 30.3723 0.648369 30.6484 1 31C1.35163 31.3516 2.00272 31.5 2.5 31.5H27.375C27.8723 31.5 28.1484 31.3516 28.5 31C28.8516 30.6484 29 30.3723 29 29.875V4.875C29 4.37772 28.8516 3.85163 28.5 3.5C28.1484 3.14837 27.8723 3 27.375 3ZM2.5 4H7V6C7 6.16576 7 6.5 7.01948 6.56694C7.13669 6.68415 7.20924 6.75 7.375 6.75C7.54076 6.75 7.69973 6.68415 7.81694 6.56694C7.93415 6.44973 8 6.29076 8 6.125V4H22V6.125C22 6.29076 22 6.25 22 6.5C22 6.75 22 6.75 22 6.75C22 6.75 23 7 23 6.75C23 6.5 23 6.29076 23 6.125V4H27.375C27.5408 4 27.6328 4.13279 27.75 4.25C27.8672 4.36721 28 4.70924 28 4.875V10.5H1.5V4.875C1.5 4.70924 1.63279 4.36721 1.75 4.25C1.86721 4.13279 2.33424 4 2.5 4ZM27.375 30.5H2.375C2.20924 30.5 2.05027 30.4342 1.93306 30.3169C1.81585 30.1997 1.5 30.0408 1.5 29.875V11.5H28V29.875C28 30.0408 27.9342 30.1997 27.8169 30.3169C27.6997 30.4342 27.5408 30.5 27.375 30.5ZM20.9531 16.9531C21.0636 17.074 21.1222 17.2334 21.1163 17.397C21.1105 17.5606 21.0407 17.7154 20.9219 17.8281L13.6406 24.7031C13.5202 24.8112 13.3649 24.8723 13.2031 24.875C13.0456 24.8744 12.8944 24.8128 12.7812 24.7031L8.8125 20.9531C8.69487 20.8357 8.62748 20.6772 8.62456 20.511C8.62165 20.3448 8.68344 20.184 8.79688 20.0625C8.91165 19.9459 9.06758 19.8789 9.23118 19.876C9.39479 19.8731 9.55301 19.9344 9.67188 20.0469L13.2031 23.3906L20.0781 16.9219C20.137 16.8653 20.2067 16.8211 20.2829 16.7919C20.3592 16.7627 20.4406 16.7492 20.5222 16.7521C20.6039 16.7551 20.6841 16.7743 20.7581 16.8089C20.8321 16.8434 20.8984 16.8925 20.9531 16.9531Z" fill="#160605"/>
</svg>
