<svg width="38" height="25" viewBox="0 0 38 25" fill="none" xmlns="http://www.w3.org/2000/svg">
<path d="M37.4755 11.895C37.4109 11.7671 36.0846 8.87332 33.1247 5.94752C30.1649 3.02172 25.6685 0 18.7621 0C11.8558 0 7.13297 3.22957 4.39955 5.94752C1.66613 8.66547 0.113416 11.7671 0.0487195 11.895C-0.0162398 12.0595 -0.0162398 12.2422 0.0487195 12.4067C0.113416 12.5346 1.43969 15.4284 4.39955 18.3542C7.35941 21.28 11.8558 24.3017 18.7621 24.3017C25.6685 24.3017 30.3913 21.0721 33.1247 18.3542C35.8581 15.6362 37.4109 12.5346 37.4755 12.4067C37.5405 12.2422 37.5405 12.0595 37.4755 11.895ZM32.1866 17.4908C28.4504 21.1521 23.9378 23.0227 18.7621 23.0227C13.5864 23.0227 9.07386 21.1521 5.33765 17.4908C3.74807 15.918 2.4068 14.1179 1.35882 12.1508C2.40278 10.1813 3.74448 8.38059 5.33765 6.81087C9.07386 3.13364 13.5864 1.27904 18.7621 1.27904C23.9378 1.27904 28.4504 3.13364 32.1866 6.81087C33.7798 8.38059 35.1215 10.1813 36.1655 12.1508C35.1215 14.1204 33.7798 15.9211 32.1866 17.4908ZM18.7621 5.11615C17.3546 5.11615 15.9787 5.52872 14.8084 6.30171C13.638 7.07469 12.7259 8.17336 12.1873 9.45878C11.6486 10.7442 11.5077 12.1587 11.7823 13.5232C12.0569 14.8878 12.7347 16.1413 13.7299 17.1251C14.7252 18.109 15.9933 18.7789 17.3738 19.0504C18.7542 19.3218 20.1852 19.1825 21.4855 18.6501C22.7859 18.1176 23.8974 17.216 24.6794 16.0591C25.4613 14.9023 25.8787 13.5422 25.8787 12.1508C25.8787 10.2851 25.129 8.49582 23.7943 7.17656C22.4597 5.8573 20.6496 5.11615 18.7621 5.11615ZM18.7621 17.9065C17.6105 17.9065 16.4848 17.5689 15.5272 16.9365C14.5697 16.3041 13.8234 15.4052 13.3827 14.3534C12.942 13.3017 12.8267 12.1445 13.0513 11.028C13.276 9.91148 13.8306 8.88592 14.6449 8.08098C15.4592 7.27603 16.4967 6.72786 17.6262 6.50578C18.7557 6.28369 19.9264 6.39767 20.9904 6.83331C22.0543 7.26894 22.9637 8.00666 23.6035 8.95317C24.2433 9.89969 24.5848 11.0125 24.5848 12.1508C24.5848 13.6773 23.9713 15.1413 22.8794 16.2207C21.7874 17.3001 20.3064 17.9065 18.7621 17.9065Z" fill="#160605"/>
</svg>
