<svg width="22" height="24" viewBox="0 0 22 24" fill="none" xmlns="http://www.w3.org/2000/svg">
<path d="M11.6364 5.33024H10.3676C10.2515 5.33024 10.1565 5.4307 10.1565 5.55349V13.2363C10.1565 13.3088 10.1882 13.3758 10.2436 13.4177L14.6041 16.786C14.699 16.8586 14.8309 16.8391 14.8995 16.7386L15.6539 15.6502C15.7252 15.547 15.7041 15.4074 15.6091 15.3377L11.8474 12.4605V5.55349C11.8474 5.4307 11.7525 5.33024 11.6364 5.33024ZM17.4345 7.42884L21.5708 8.49768C21.7027 8.53117 21.8319 8.42512 21.8319 8.28279L21.853 3.77582C21.853 3.58884 21.6499 3.48279 21.5127 3.6L17.3554 7.03535C17.324 7.06107 17.3001 7.09564 17.2864 7.1351C17.2727 7.17455 17.2698 7.21729 17.2781 7.2584C17.2864 7.2995 17.3054 7.33731 17.3331 7.36746C17.3608 7.39761 17.3959 7.41889 17.4345 7.42884ZM21.8583 15.8316L20.3626 15.2874C20.3105 15.2685 20.2534 15.272 20.2036 15.297C20.1538 15.322 20.1153 15.3667 20.0962 15.4214C20.0461 15.5637 19.9933 15.7033 19.9379 15.8428C19.4684 17.0177 18.7957 18.0753 17.9357 18.9823C17.0853 19.8848 16.0775 20.6041 14.9681 21.1005C13.8188 21.6145 12.5834 21.8784 11.3357 21.8763C10.0748 21.8763 8.85341 21.6167 7.70328 21.1005C6.59388 20.6041 5.58604 19.8848 4.73563 18.9823C3.87831 18.0753 3.20565 17.0177 2.73346 15.8428C2.25024 14.6263 2.00267 13.3196 2.0054 12C2.0054 10.666 2.25072 9.37117 2.73874 8.15442C3.20828 6.97954 3.88095 5.92186 4.74091 5.01489C5.59132 4.11243 6.59916 3.39309 7.70856 2.89675C8.85341 2.38047 10.0774 2.12093 11.3383 2.12093C12.5992 2.12093 13.8206 2.38047 14.9707 2.89675C16.0801 3.39309 17.088 4.11243 17.9384 5.01489C18.2074 5.30233 18.4607 5.60093 18.6928 5.91628L20.2703 4.61024C18.1943 1.80279 14.9628 -0.00278747 11.333 3.23034e-06C5.01261 0.00279393 -0.0627239 5.43349 0.000585912 12.1228C0.0638958 18.6949 5.11549 24 11.3383 24C16.2316 24 20.3995 20.7181 21.9876 16.1219C22.0271 16.0047 21.9691 15.8735 21.8583 15.8316Z" fill="#160605"/>
</svg>
