<svg width="18" height="14" viewBox="0 0 18 14" fill="none" xmlns="http://www.w3.org/2000/svg">
<path d="M4.86572 4.21289L9.00034 7.46443L13.135 4.21289" stroke="#0B62E3" stroke-width="1.5" stroke-linecap="round" stroke-linejoin="round"/>
<path d="M0.730957 11.645V2.35485C0.730957 1.86207 0.905201 1.38948 1.21536 1.04103C1.52551 0.692582 1.94618 0.496826 2.3848 0.496826H15.6156C16.0542 0.496826 16.4749 0.692582 16.785 1.04103C17.0952 1.38948 17.2694 1.86207 17.2694 2.35485V11.645C17.2694 12.1378 17.0952 12.6103 16.785 12.9588C16.4749 13.3072 16.0542 13.503 15.6156 13.503H2.3848C1.94618 13.503 1.52551 13.3072 1.21536 12.9588C0.905201 12.6103 0.730957 12.1378 0.730957 11.645Z" stroke="#0B62E3" stroke-width="1.5"/>
</svg>
