<svg width="8" height="10" viewBox="0 0 8 10" fill="none" xmlns="http://www.w3.org/2000/svg">
<path d="M4.256 0.213999C4.99333 0.213999 5.57667 0.311999 6.006 0.508C6.43533 0.694666 6.74333 1.00733 6.93 1.446C7.11667 1.88467 7.21 2.482 7.21 3.238C7.21 3.994 7.11667 4.59133 6.93 5.03C6.75267 5.46867 6.45867 5.786 6.048 5.982C5.63733 6.16867 5.08667 6.262 4.396 6.262C4.12533 6.262 3.85 6.262 3.57 6.262C3.29 6.262 3.00533 6.25733 2.716 6.248C2.436 6.23867 2.156 6.234 1.876 6.234C1.60533 6.22467 1.33467 6.21533 1.064 6.206C0.802667 6.18733 0.546 6.17333 0.294 6.164L0.322 5.198C0.564667 5.198 0.863333 5.198 1.218 5.198C1.57267 5.198 1.94133 5.198 2.324 5.198C2.70667 5.198 3.066 5.198 3.402 5.198C3.74733 5.198 4.02267 5.198 4.228 5.198C4.66667 5.198 5.012 5.13733 5.264 5.016C5.516 4.88533 5.69333 4.67533 5.796 4.386C5.908 4.09667 5.964 3.714 5.964 3.238C5.964 2.75267 5.908 2.37 5.796 2.09C5.69333 1.80067 5.516 1.59533 5.264 1.474C5.012 1.34333 4.66667 1.278 4.228 1.278C3.78 1.278 3.388 1.28267 3.052 1.292C2.72533 1.292 2.44533 1.29667 2.212 1.306C1.97867 1.306 1.79667 1.31533 1.666 1.334L1.47 0.339999C1.73133 0.312 1.96 0.288666 2.156 0.269999C2.352 0.251333 2.54333 0.242 2.73 0.242C2.926 0.232666 3.14067 0.228 3.374 0.228C3.61667 0.218666 3.91067 0.213999 4.256 0.213999ZM2.688 0.339999V10H1.47V0.339999H2.688ZM5.712 7.592L5.642 8.362H0.322L0.308 7.592H5.712Z" fill="#838383"/>
</svg>
