<svg width="10" height="13" viewBox="0 0 10 13" fill="none" xmlns="http://www.w3.org/2000/svg">
<path d="M5.472 0.417999C6.42 0.417999 7.17 0.543999 7.722 0.795999C8.274 1.036 8.67 1.438 8.91 2.002C9.15 2.566 9.27 3.334 9.27 4.306C9.27 5.278 9.15 6.046 8.91 6.61C8.682 7.174 8.304 7.582 7.776 7.834C7.248 8.074 6.54 8.194 5.652 8.194C5.304 8.194 4.95 8.194 4.59 8.194C4.23 8.194 3.864 8.188 3.492 8.176C3.132 8.164 2.772 8.158 2.412 8.158C2.064 8.146 1.716 8.134 1.368 8.122C1.032 8.098 0.702 8.08 0.378 8.068L0.414 6.826C0.726 6.826 1.11 6.826 1.566 6.826C2.022 6.826 2.496 6.826 2.988 6.826C3.48 6.826 3.942 6.826 4.374 6.826C4.818 6.826 5.172 6.826 5.436 6.826C6 6.826 6.444 6.748 6.768 6.592C7.092 6.424 7.32 6.154 7.452 5.782C7.596 5.41 7.668 4.918 7.668 4.306C7.668 3.682 7.596 3.19 7.452 2.83C7.32 2.458 7.092 2.194 6.768 2.038C6.444 1.87 6 1.786 5.436 1.786C4.86 1.786 4.356 1.792 3.924 1.804C3.504 1.804 3.144 1.81 2.844 1.822C2.544 1.822 2.31 1.834 2.142 1.858L1.89 0.579999C2.226 0.543999 2.52 0.513999 2.772 0.489999C3.024 0.465999 3.27 0.454 3.51 0.454C3.762 0.442 4.038 0.436 4.338 0.436C4.65 0.423999 5.028 0.417999 5.472 0.417999ZM3.456 0.579999V13H1.89V0.579999H3.456ZM7.344 9.904L7.254 10.894H0.414L0.396 9.904H7.344Z" fill="#160605"/>
</svg>
