<svg width="40" height="34" viewBox="0 0 40 34" fill="none" xmlns="http://www.w3.org/2000/svg">
<path d="M36.9819 0.5H2.82863C2.21104 0.5 1.61874 0.749614 1.18204 1.19393C0.745337 1.63825 0.5 2.24087 0.5 2.86923V31.3C0.5 31.9284 0.745337 32.531 1.18204 32.9753C1.61874 33.4196 2.21104 33.6692 2.82863 33.6692H5.42893C5.57515 33.6662 5.71771 33.6222 5.84095 33.5421C5.96419 33.462 6.06334 33.3488 6.12752 33.2151C6.94511 31.4579 8.23631 29.9729 9.8509 28.933C11.4655 27.8932 13.3371 27.3411 15.248 27.3411C17.1589 27.3411 19.0305 27.8932 20.6451 28.933C22.2597 29.9729 23.5509 31.4579 24.3684 33.2151C24.4326 33.3488 24.5318 33.462 24.655 33.5421C24.7783 33.6222 24.9208 33.6662 25.067 33.6692H36.9819C37.5994 33.6692 38.1917 33.4196 38.6284 32.9753C39.0651 32.531 39.3105 31.9284 39.3105 31.3V2.86923C39.3105 2.24087 39.0651 1.63825 38.6284 1.19393C38.1917 0.749614 37.5994 0.5 36.9819 0.5ZM37.7581 31.3C37.7581 31.5095 37.6763 31.7103 37.5307 31.8584C37.3852 32.0065 37.1877 32.0897 36.9819 32.0897H25.5522C24.1249 29.3586 21.7105 27.2985 18.8185 26.3444C20.1337 25.5487 21.1557 24.3356 21.7276 22.8916C22.2995 21.4476 22.3896 19.8526 21.9841 18.3514C21.5785 16.8503 20.6998 15.5261 19.4829 14.5824C18.2659 13.6386 16.7781 13.1275 15.248 13.1275C13.7179 13.1275 12.23 13.6386 11.0131 14.5824C9.79618 15.5261 8.91745 16.8503 8.51192 18.3514C8.10638 19.8526 8.19647 21.4476 8.76835 22.8916C9.34022 24.3356 10.3622 25.5487 11.6774 26.3444C8.78546 27.2985 6.37103 29.3586 4.9438 32.0897H2.82863C2.62432 32.0847 2.42973 31.9999 2.28522 31.8529C2.1407 31.7058 2.05734 31.5079 2.05242 31.3V2.86923C2.05242 2.65978 2.1342 2.4589 2.27977 2.3108C2.42533 2.16269 2.62277 2.07949 2.82863 2.07949H36.9819C37.1877 2.07949 37.3852 2.16269 37.5307 2.3108C37.6763 2.4589 37.7581 2.65978 37.7581 2.86923V31.3ZM15.248 25.7718C14.1733 25.7718 13.1228 25.4476 12.2293 24.8401C11.3358 24.2327 10.6394 23.3693 10.2281 22.3591C9.81687 21.349 9.70927 20.2375 9.91892 19.1651C10.1286 18.0927 10.6461 17.1077 11.4059 16.3346C12.1658 15.5614 13.134 15.0349 14.188 14.8216C15.242 14.6083 16.3344 14.7178 17.3273 15.1362C18.3201 15.5546 19.1687 16.2632 19.7657 17.1723C20.3628 18.0814 20.6815 19.1502 20.6815 20.2436C20.6763 21.7082 20.1022 23.1113 19.0844 24.1469C18.0665 25.1825 16.6875 25.7666 15.248 25.7718ZM33.1008 7.60769V26.5615C33.1008 26.771 33.019 26.9719 32.8735 27.12C32.7279 27.2681 32.5305 27.3513 32.3246 27.3513H29.2198C29.0139 27.3513 28.8165 27.2681 28.6709 27.12C28.5253 26.9719 28.4435 26.771 28.4435 26.5615C28.4435 26.3521 28.5253 26.1512 28.6709 26.0031C28.8165 25.855 29.0139 25.7718 29.2198 25.7718H31.5484V8.39744H8.2621V10.7667C8.2621 10.9761 8.18032 11.177 8.03475 11.3251C7.88918 11.4732 7.69175 11.5564 7.48589 11.5564C7.28002 11.5564 7.08259 11.4732 6.93702 11.3251C6.79146 11.177 6.70968 10.9761 6.70968 10.7667V7.60769C6.70968 7.39824 6.79146 7.19736 6.93702 7.04926C7.08259 6.90115 7.28002 6.81795 7.48589 6.81795H32.3246C32.5305 6.81795 32.7279 6.90115 32.8735 7.04926C33.019 7.19736 33.1008 7.39824 33.1008 7.60769Z" fill="#160605"/>
</svg>
