<svg width="27" height="24" viewBox="0 0 27 24" fill="none" xmlns="http://www.w3.org/2000/svg">
<g clip-path="url(#clip0_55_252)">
<path d="M22.7385 5.71021H3.98853C2.43522 5.71021 1.17603 6.9694 1.17603 8.52271V19.7727C1.17603 21.326 2.43522 22.5852 3.98853 22.5852H22.7385C24.2918 22.5852 25.551 21.326 25.551 19.7727V8.52271C25.551 6.9694 24.2918 5.71021 22.7385 5.71021Z" stroke="#160605" stroke-width="1.875" stroke-linejoin="round"/>
<path d="M22.4666 5.71024V3.95243C22.4665 3.5213 22.3712 3.09551 22.1876 2.70545C22.0039 2.31539 21.7365 1.97067 21.4043 1.69588C21.0721 1.42109 20.6833 1.22301 20.2657 1.11577C19.8481 1.00852 19.412 0.994766 18.9885 1.07547L3.55728 3.70926C2.88715 3.83697 2.2826 4.19452 1.84789 4.72026C1.41318 5.246 1.17556 5.90696 1.17603 6.58915V9.46024" stroke="#160605" stroke-width="1.875" stroke-linejoin="round"/>
<path d="M19.926 16.0227C19.5552 16.0227 19.1927 15.9127 18.8843 15.7067C18.576 15.5007 18.3357 15.2078 18.1938 14.8652C18.0518 14.5226 18.0147 14.1456 18.0871 13.7819C18.1594 13.4182 18.338 13.0841 18.6002 12.8219C18.8624 12.5597 19.1965 12.3811 19.5602 12.3087C19.9239 12.2364 20.3009 12.2735 20.6436 12.4154C20.9862 12.5573 21.279 12.7977 21.485 13.106C21.6911 13.4144 21.801 13.7769 21.801 14.1477C21.801 14.645 21.6035 15.1219 21.2519 15.4735C20.9002 15.8252 20.4233 16.0227 19.926 16.0227Z" fill="#160605"/>
</g>
<defs>
<clipPath id="clip0_55_252">
<rect width="27" height="24" fill="white"/>
</clipPath>
</defs>
</svg>
